<svg id="Layer_1" data-name="Layer 1" xmlns="http://www.w3.org/2000/svg" viewBox="0 0 94.12 58.44"><defs><style>.cls-1{fill:#d2e5b3;}.cls-2{fill:#3d4752;}</style></defs><title>erd-symbols</title><path class="cls-1" d="M94,29.22c0,16.11-21.06,29.16-47,29.16S.08,45.33.08,29.22,21.09.06,47.06.06,94,13.11,94,29.22Z"/><path class="cls-2" d="M24,26c0,.83,0,1.72,0,2.53L26.61,26h1.11l-2.79,2.62,3,3.11H26.74c-.91-1-1.79-2-2.71-3v3h-.8V26H24"/><path class="cls-2" d="M30,27.75c1.3,0,1.9.87,1.84,2.25h-3a1.2,1.2,0,0,0,1.25,1.17,1.28,1.28,0,0,0,1.12-.58l.53.43a1.92,1.92,0,0,1-1.65.79,1.86,1.86,0,0,1-2-2,1.86,1.86,0,0,1,2-2m1.08,1.68a1.07,1.07,0,0,0-1.54-1,1.12,1.12,0,0,0-.75,1Z"/><path class="cls-2" d="M33.19,27.86c.41,1,.78,2,1.21,3l1.06-3h.81L34.41,32.6a1.4,1.4,0,0,1-1.83,1l.07-.67a.79.79,0,0,0,.83-.1A4.73,4.73,0,0,0,34,31.7l-1.64-3.84h.85"/><rect class="cls-2" x="22.13" y="32.1" width="16.65" height="0.4"/><path class="cls-2" d="M40.16,29.58h2.15l-1.07-2.69m-1.94,4.8h-.89L40.9,26h.73l2.46,5.73h-.91l-.58-1.41H39.88Z"/><path class="cls-2" d="M46,31.76c-.75,0-1.13-.43-1.12-1.2V28.48h-.74v-.62h.74v-1.1h.75v1.1h1v.62h-1v2c0,.44.13.64.54.65a1.09,1.09,0,0,0,.45-.1l0,.62a1.94,1.94,0,0,1-.65.11"/><path class="cls-2" d="M48.56,31.76c-.75,0-1.13-.43-1.12-1.2V28.48H46.7v-.62h.74v-1.1h.75v1.1h1v.62h-1v2c0,.44.13.64.54.65a1.09,1.09,0,0,0,.45-.1l0,.62a1.94,1.94,0,0,1-.65.11"/><path class="cls-2" d="M50,31.7c0-1.28,0-2.61,0-3.84h.72c0,.16,0,.48,0,.65h0a1.3,1.3,0,0,1,1.47-.72l0,.7a1.1,1.1,0,0,0-1.43,1.19v2H50"/><path class="cls-2" d="M53.32,26a.5.5,0,0,1,.51.49.51.51,0,1,1-.51-.49m.38,5.72h-.76V27.86h.76V31.7Z"/><path class="cls-2" d="M57.05,31.16a1.24,1.24,0,0,0,1.28-1.39,1.23,1.23,0,0,0-1.28-1.39,1.39,1.39,0,0,0,0,2.78m.13.64a1.62,1.62,0,0,1-1.39-.71h0v.61H55V25.57h.76v2.86h0a1.6,1.6,0,0,1,1.37-.68,1.85,1.85,0,0,1,1.92,2A1.84,1.84,0,0,1,57.18,31.8Z"/><path class="cls-2" d="M63.57,27.86c0,1.28,0,2.61,0,3.84h-.72c0-.16,0-.49,0-.63a1.41,1.41,0,0,1-1.26.74,1.36,1.36,0,0,1-1.43-1.56V27.86h.76V30c0,.68.19,1.18.87,1.18s1-.57,1-1.26v-2h.76"/><path class="cls-2" d="M66.12,31.76c-.75,0-1.13-.43-1.12-1.2V28.48h-.74v-.62H65v-1.1h.75v1.1h1v.62h-1v2c0,.44.13.64.54.65a1.09,1.09,0,0,0,.45-.1l0,.62a1.94,1.94,0,0,1-.65.11"/><path class="cls-2" d="M69.29,27.75c1.3,0,1.9.87,1.84,2.25h-3a1.2,1.2,0,0,0,1.25,1.17,1.28,1.28,0,0,0,1.12-.58L71,31a1.92,1.92,0,0,1-1.65.79,1.86,1.86,0,0,1-2-2,1.86,1.86,0,0,1,2-2m1.08,1.68a1.07,1.07,0,0,0-1.54-1,1.12,1.12,0,0,0-.75,1Z"/><rect class="cls-2" x="37.97" y="32.1" width="34.1" height="0.4"/></svg>