<svg id="Layer_1" data-name="Layer 1" xmlns="http://www.w3.org/2000/svg" viewBox="0 0 94.12 58.44"><defs><style>.cls-1{fill:none;stroke:#3d4752;stroke-miterlimit:10;stroke-width:0.9px;}.cls-2{fill:#d2e5b3;}.cls-3{fill:#3d4752;}</style></defs><title>erd-symbols</title><path class="cls-1" d="M78.38,35.61h1.35m-5.89,0h2.74m-7.29,0H72m-7.29,0h2.74m-7.29,0h2.74m-7.29,0H58.4m-7.24,0h2.7m-7.25,0h2.7m-7.24,0h2.7m-7.24,0h2.7m-7.24,0h2.74m-7.29,0h2.74m-7.29,0h2.75m-7.29,0h2.74m-7.29,0h2.74m-5.89,0H13"/><line class="cls-1" x1="79.73" y1="35.61" x2="81.08" y2="35.61"/><path class="cls-2" d="M94,29.22c0,16.11-21.06,29.16-47,29.16s-47-13-47-29.16S21.09.06,47.06.06,94,13.11,94,29.22Z"/><path class="cls-3" d="M13.8,27.56c0-1-1.15-.92-2.19-.92V28.5c1,0,2.19.09,2.19-.94m.81,0c0,1.51-1.39,1.69-3,1.62V31.7h-.8V26h1.75C13.75,26,14.61,26.37,14.61,27.56Z"/><path class="cls-3" d="M16.42,31.19a1.09,1.09,0,0,0,1.11-1.33c-.83,0-1.9,0-1.9.73,0,.44.35.59.79.6m-1.56-.58c0-1.24,1.4-1.26,2.67-1.3,0-.65-.35-.95-.95-.95a1.6,1.6,0,0,0-1.09.45l-.4-.49a2.26,2.26,0,0,1,1.57-.58,1.42,1.42,0,0,1,1.6,1.51,23.93,23.93,0,0,0,.06,2.44h-.69a2.56,2.56,0,0,1-.06-.55h0a1.47,1.47,0,0,1-1.29.65C15.45,31.79,14.85,31.43,14.85,30.61Z"/><path class="cls-3" d="M19.53,31.7c0-1.28,0-2.61,0-3.84h.72c0,.16,0,.48,0,.65h0a1.3,1.3,0,0,1,1.47-.72l0,.7a1.1,1.1,0,0,0-1.43,1.19v2h-.76"/><path class="cls-3" d="M23.58,31.76c-.75,0-1.13-.43-1.12-1.2V28.48h-.74v-.62h.74v-1.1h.75v1.1h1v.62h-1v2c0,.44.13.64.54.65a1.09,1.09,0,0,0,.45-.1l0,.62a1.94,1.94,0,0,1-.65.11"/><path class="cls-3" d="M25.42,26a.5.5,0,0,1,.51.49.51.51,0,1,1-.51-.49m.38,5.72H25V27.86h.76V31.7Z"/><path class="cls-3" d="M28.4,31.19a1.09,1.09,0,0,0,1.11-1.33c-.83,0-1.9,0-1.9.73,0,.44.35.59.79.6m-1.56-.58c0-1.24,1.4-1.26,2.67-1.3,0-.65-.35-.95-.95-.95a1.6,1.6,0,0,0-1.09.45l-.4-.49a2.26,2.26,0,0,1,1.57-.58,1.42,1.42,0,0,1,1.6,1.51,23.93,23.93,0,0,0,.06,2.44h-.69a2.56,2.56,0,0,1-.06-.55h0a1.47,1.47,0,0,1-1.29.65C27.44,31.79,26.84,31.43,26.84,30.61Z"/><polyline class="cls-3" points="32.29 31.7 31.53 31.7 31.53 28.63 31.53 25.57 32.29 25.57 32.29 28.63 32.29 31.7"/><path class="cls-3" d="M36.45,26c0,.83,0,1.72,0,2.53L39,26h1.11l-2.79,2.62,3,3.11H39.16c-.91-1-1.79-2-2.71-3v3h-.8V26h.8"/><path class="cls-3" d="M42.44,27.75c1.3,0,1.9.87,1.84,2.25h-3a1.2,1.2,0,0,0,1.25,1.17,1.28,1.28,0,0,0,1.12-.58l.53.43a1.92,1.92,0,0,1-1.65.79,1.86,1.86,0,0,1-2-2,1.86,1.86,0,0,1,2-2m1.08,1.68a1.07,1.07,0,0,0-1.54-1,1.12,1.12,0,0,0-.75,1Z"/><path class="cls-3" d="M45.61,27.86c.41,1,.78,2,1.21,3l1.06-3h.81L46.83,32.6a1.4,1.4,0,0,1-1.83,1l.07-.67a.79.79,0,0,0,.83-.1,4.73,4.73,0,0,0,.51-1.12l-1.64-3.84h.85"/><path class="cls-3" d="M52.58,29.58h2.15l-1.07-2.69m-1.94,4.8h-.89L53.32,26h.73l2.46,5.73h-.91L55,30.29H52.3Z"/><path class="cls-3" d="M58.43,31.76c-.75,0-1.13-.43-1.12-1.2V28.48h-.74v-.62h.74v-1.1h.75v1.1h1v.62h-1v2c0,.44.13.64.54.65a1.09,1.09,0,0,0,.45-.1l0,.62a1.94,1.94,0,0,1-.65.11"/><path class="cls-3" d="M61,31.76c-.75,0-1.13-.43-1.12-1.2V28.48h-.74v-.62h.74v-1.1h.75v1.1h1v.62h-1v2c0,.44.13.64.54.65a1.09,1.09,0,0,0,.45-.1l0,.62a1.94,1.94,0,0,1-.65.11"/><path class="cls-3" d="M62.42,31.7c0-1.28,0-2.61,0-3.84h.72c0,.16,0,.48,0,.65h0a1.3,1.3,0,0,1,1.47-.72l0,.7a1.1,1.1,0,0,0-1.43,1.19v2h-.76"/><path class="cls-3" d="M65.74,26a.5.5,0,0,1,.51.49.51.51,0,1,1-.51-.49m.38,5.72h-.76V27.86h.76V31.7Z"/><path class="cls-3" d="M69.47,31.16a1.24,1.24,0,0,0,1.28-1.39,1.23,1.23,0,0,0-1.28-1.39,1.39,1.39,0,0,0,0,2.78m.13.64a1.62,1.62,0,0,1-1.39-.71h0v.61h-.74V25.57h.76v2.86h0a1.6,1.6,0,0,1,1.37-.68,1.85,1.85,0,0,1,1.92,2A1.84,1.84,0,0,1,69.6,31.8Z"/><path class="cls-3" d="M76,27.86c0,1.28,0,2.61,0,3.84h-.72c0-.16,0-.49,0-.63A1.41,1.41,0,0,1,74,31.8a1.36,1.36,0,0,1-1.43-1.56V27.86h.76V30c0,.68.19,1.18.87,1.18s1-.57,1-1.26v-2H76"/><path class="cls-3" d="M78.54,31.76c-.75,0-1.13-.43-1.12-1.2V28.48h-.74v-.62h.74v-1.1h.75v1.1h1v.62h-1v2c0,.44.13.64.54.65a1.09,1.09,0,0,0,.45-.1l0,.62a1.94,1.94,0,0,1-.65.11"/><path class="cls-3" d="M81.71,27.75c1.3,0,1.9.87,1.84,2.25h-3a1.2,1.2,0,0,0,1.25,1.17,1.28,1.28,0,0,0,1.12-.58l.53.43a1.92,1.92,0,0,1-1.65.79,1.86,1.86,0,0,1-2-2,1.86,1.86,0,0,1,2-2m1.08,1.68a1.07,1.07,0,0,0-1.54-1,1.12,1.12,0,0,0-.75,1Z"/></svg>